<?xml version="1.0" encoding="UTF-8"?>
<svg version="1.1" xmlns="http://www.w3.org/2000/svg" width="256" height="256">
<path d="M0 0 C84.48 0 168.96 0 256 0 C256 84.48 256 168.96 256 256 C171.52 256 87.04 256 0 256 C0 171.52 0 87.04 0 0 Z " fill="#78E161" transform="translate(0,0)"/>
<path d="M0 0 C4.59627951 2.25477863 8.03873744 5.2183954 10 10 C10.62626616 14.28731526 10.69626805 18.54713595 10.75 22.875 C10.77964844 24.0403125 10.80929688 25.205625 10.83984375 26.40625 C10.91028601 29.27090195 10.96311113 32.13475205 11 35 C11.64960693 34.63124756 12.29921387 34.26249512 12.96850586 33.88256836 C15.94544673 32.2103051 18.94072493 30.573933 21.9375 28.9375 C22.95908203 28.35677734 23.98066406 27.77605469 25.03320312 27.17773438 C30.65581754 24.14188186 34.71940095 22.22637879 41.12573242 23.40161133 C45.27837947 24.72740759 48.02894823 26.89947466 50.875 30.125 C52.88963006 35.27349905 52.93141921 40.67145198 50.875 45.8125 C46.43443636 50.99315757 40.95842647 54.41532044 35.125 57.8125 C34.43664062 58.21919922 33.74828125 58.62589844 33.0390625 59.04492188 C31.36219437 60.03473987 29.68149309 61.01805938 28 62 C30.05507896 64.19118997 32.06874562 65.77947462 34.65234375 67.3046875 C35.34650391 67.72363281 36.04066406 68.14257812 36.75585938 68.57421875 C38.20397388 69.43764244 39.65448513 70.29705965 41.10742188 71.15234375 C45.89280903 74.05284718 49.43430782 76.86861564 52 82 C52.80889711 88.51095871 51.90069977 92.7287841 48 98 C43.54683177 101.15089718 40.14342351 101.843769 34.7578125 101.76953125 C26.51877338 100.08232677 19.17939291 95.2417532 12 91 C11.99589111 91.64437012 11.99178223 92.28874023 11.98754883 92.95263672 C11.95425657 95.92763281 11.8835776 98.90067598 11.8125 101.875 C11.80379883 103.39480469 11.80379883 103.39480469 11.79492188 104.9453125 C11.57551233 112.55150998 10.14842238 119.99669106 4.44360352 125.50195312 C-0.04152805 128.47609255 -4.83213915 128.90697375 -10 128 C-15.46772599 125.47643416 -18.72590317 121.49546672 -21 116 C-21.58474066 111.64322028 -21.47576516 107.3855533 -21.3125 103 C-21.27866211 101.26556641 -21.27866211 101.26556641 -21.24414062 99.49609375 C-21.18559934 96.66269566 -21.10365035 93.83204636 -21 91 C-22.16402344 91.74443359 -22.16402344 91.74443359 -23.3515625 92.50390625 C-47.31308895 107.57278983 -47.31308895 107.57278983 -54.9609375 105.92578125 C-59.42595356 103.89856131 -63.78490718 100.43018563 -66 96 C-66.50529597 90.93047326 -66.64153859 86.45043507 -64.5625 81.75 C-58.2455139 74.9707954 -50.50859623 70.32807042 -42.625 65.6015625 C-40.16118305 64.23963069 -40.16118305 64.23963069 -39 63 C-39.64549805 62.63237549 -40.29099609 62.26475098 -40.95605469 61.88598633 C-43.89347085 60.20523715 -46.82170252 58.50908235 -49.75 56.8125 C-50.76578125 56.23435547 -51.7815625 55.65621094 -52.828125 55.06054688 C-53.8078125 54.49013672 -54.7875 53.91972656 -55.796875 53.33203125 C-56.69760742 52.81358643 -57.59833984 52.2951416 -58.52636719 51.76098633 C-61.85146936 49.39383651 -64.17423282 46.65153437 -66 43 C-66.65337047 37.89437644 -66.78605642 33.42495895 -63.8125 29.0625 C-60.27670582 24.88652024 -57.63645901 23.16754998 -52.0703125 22.59765625 C-45.7262041 22.67644516 -40.66912079 25.53913259 -35.125 28.375 C-34.09375 28.88289063 -33.0625 29.39078125 -32 29.9140625 C-28.19790056 31.80022149 -24.53431371 33.64379086 -21 36 C-20.9906543 35.24380371 -20.98130859 34.48760742 -20.97167969 33.70849609 C-20.917808 30.26334866 -20.83419159 26.81953438 -20.75 23.375 C-20.73582031 22.18519531 -20.72164062 20.99539062 -20.70703125 19.76953125 C-20.3985484 8.7258451 -20.3985484 8.7258451 -16 4 C-10.82977034 0.14767202 -6.42689778 -1.14933573 0 0 Z " fill="#003524" transform="translate(135,64)"/>
</svg>
